<svg xmlns="http://www.w3.org/2000/svg" viewBox="0 0 48 48"><title>08-notebook</title><g id="_08-notebook" data-name="08-notebook"><path d="M6,6H9V4H5A1,1,0,0,0,4,5V9H6Z"/><rect x="4" y="38" width="4" height="2"/><rect x="4" y="42" width="8" height="2"/><path d="M47.707,14.626l-4.333-4.333a1,1,0,0,0-1.415,0L34,18.252V3a3,3,0,0,0-3-3H3A3,3,0,0,0,0,3V45a3,3,0,0,0,3,3H31a3,3,0,0,0,3-3V29.748L47.707,16.041A1,1,0,0,0,47.707,14.626ZM21,2h6V13.586l-2.293-2.293a1,1,0,0,0-1.414,0L21,13.586ZM32,45a1,1,0,0,1-1,1H3a1,1,0,0,1-1-1V3A1,1,0,0,1,3,2H19V16a1,1,0,0,0,1.707.707L24,13.414l3.293,3.293A1,1,0,0,0,29,16V2h2a1,1,0,0,1,1,1V20.252L20.293,31.959A1,1,0,0,0,20.065,33H20v4a1,1,0,0,0,1,1h4v-.065a.965.965,0,0,0,1.041-.228L32,31.748Zm-6.667-9.414-2.919-2.919L39.778,15.3,42.7,18.222ZM44.111,16.808l-2.919-2.919,1.475-1.475,2.919,2.919Z"/></g></svg>